<svg xmlns="http://www.w3.org/2000/svg" viewBox="0 0 512 512" width="512" height="512">

  <path d="M512.00 256.00 L511.97 312.06 L511.90 329.96 L511.77 342.97 L511.59 353.55 L511.35 362.63 L511.07 370.65 L510.73 377.89 L510.35 384.51 L509.91 390.64 L509.41 396.34 L508.87 401.69 L508.27 406.74 L507.62 411.51 L506.91 416.04 L506.15 420.36 L505.34 424.48 L504.47 428.42 L503.55 432.20 L502.57 435.83 L501.54 439.31 L500.45 442.66 L499.30 445.89 L498.10 449.00 L496.84 452.00 L495.52 454.89 L494.14 457.68 L492.70 460.38 L491.19 462.98 L489.63 465.49 L488.00 467.92 L486.31 470.26 L484.55 472.53 L482.72 474.71 L480.83 476.82 L478.86 478.86 L476.82 480.83 L474.71 482.72 L472.53 484.55 L470.26 486.31 L467.92 488.00 L465.49 489.63 L462.98 491.19 L460.38 492.70 L457.68 494.14 L454.89 495.52 L452.00 496.84 L449.00 498.10 L445.89 499.30 L442.66 500.45 L439.31 501.54 L435.83 502.57 L432.20 503.55 L428.42 504.47 L424.48 505.34 L420.36 506.15 L416.04 506.91 L411.51 507.62 L406.74 508.27 L401.69 508.87 L396.34 509.41 L390.64 509.91 L384.51 510.35 L377.89 510.73 L370.65 511.07 L362.63 511.35 L353.55 511.59 L342.97 511.77 L329.96 511.90 L312.06 511.97 L256.00 512.00 L199.94 511.97 L182.04 511.90 L169.03 511.77 L158.45 511.59 L149.37 511.35 L141.35 511.07 L134.11 510.73 L127.49 510.35 L121.36 509.91 L115.66 509.41 L110.31 508.87 L105.26 508.27 L100.49 507.62 L95.96 506.91 L91.64 506.15 L87.52 505.34 L83.58 504.47 L79.80 503.55 L76.17 502.57 L72.69 501.54 L69.34 500.45 L66.11 499.30 L63.00 498.10 L60.00 496.84 L57.11 495.52 L54.32 494.14 L51.62 492.70 L49.02 491.19 L46.51 489.63 L44.08 488.00 L41.74 486.31 L39.47 484.55 L37.29 482.72 L35.18 480.83 L33.14 478.86 L31.17 476.82 L29.28 474.71 L27.45 472.53 L25.69 470.26 L24.00 467.92 L22.37 465.49 L20.81 462.98 L19.30 460.38 L17.86 457.68 L16.48 454.89 L15.16 452.00 L13.90 449.00 L12.70 445.89 L11.55 442.66 L10.46 439.31 L9.43 435.83 L8.45 432.20 L7.53 428.42 L6.66 424.48 L5.85 420.36 L5.09 416.04 L4.38 411.51 L3.73 406.74 L3.13 401.69 L2.59 396.34 L2.09 390.64 L1.65 384.51 L1.27 377.89 L0.93 370.65 L0.65 362.63 L0.41 353.55 L0.23 342.97 L0.10 329.96 L0.03 312.06 L0.00 256.00 L0.03 199.94 L0.10 182.04 L0.23 169.03 L0.41 158.45 L0.65 149.37 L0.93 141.35 L1.27 134.11 L1.65 127.49 L2.09 121.36 L2.59 115.66 L3.13 110.31 L3.73 105.26 L4.38 100.49 L5.09 95.96 L5.85 91.64 L6.66 87.52 L7.53 83.58 L8.45 79.80 L9.43 76.17 L10.46 72.69 L11.55 69.34 L12.70 66.11 L13.90 63.00 L15.16 60.00 L16.48 57.11 L17.86 54.32 L19.30 51.62 L20.81 49.02 L22.37 46.51 L24.00 44.08 L25.69 41.74 L27.45 39.47 L29.28 37.29 L31.17 35.18 L33.14 33.14 L35.18 31.17 L37.29 29.28 L39.47 27.45 L41.74 25.69 L44.08 24.00 L46.51 22.37 L49.02 20.81 L51.62 19.30 L54.32 17.86 L57.11 16.48 L60.00 15.16 L63.00 13.90 L66.11 12.70 L69.34 11.55 L72.69 10.46 L76.17 9.43 L79.80 8.45 L83.58 7.53 L87.52 6.66 L91.64 5.85 L95.96 5.09 L100.49 4.38 L105.26 3.73 L110.31 3.13 L115.66 2.59 L121.36 2.09 L127.49 1.65 L134.11 1.27 L141.35 0.93 L149.37 0.65 L158.45 0.41 L169.03 0.23 L182.04 0.10 L199.94 0.03 L256.00 0.00 L312.06 0.03 L329.96 0.10 L342.97 0.23 L353.55 0.41 L362.63 0.65 L370.65 0.93 L377.89 1.27 L384.51 1.65 L390.64 2.09 L396.34 2.59 L401.69 3.13 L406.74 3.73 L411.51 4.38 L416.04 5.09 L420.36 5.85 L424.48 6.66 L428.42 7.53 L432.20 8.45 L435.83 9.43 L439.31 10.46 L442.66 11.55 L445.89 12.70 L449.00 13.90 L452.00 15.16 L454.89 16.48 L457.68 17.86 L460.38 19.30 L462.98 20.81 L465.49 22.37 L467.92 24.00 L470.26 25.69 L472.53 27.45 L474.71 29.28 L476.82 31.17 L478.86 33.14 L480.83 35.18 L482.72 37.29 L484.55 39.47 L486.31 41.74 L488.00 44.08 L489.63 46.51 L491.19 49.02 L492.70 51.62 L494.14 54.32 L495.52 57.11 L496.84 60.00 L498.10 63.00 L499.30 66.11 L500.45 69.34 L501.54 72.69 L502.57 76.17 L503.55 79.80 L504.47 83.58 L505.34 87.52 L506.15 91.64 L506.91 95.96 L507.62 100.49 L508.27 105.26 L508.87 110.31 L509.41 115.66 L509.91 121.36 L510.35 127.49 L510.73 134.11 L511.07 141.35 L511.35 149.37 L511.59 158.45 L511.77 169.03 L511.90 182.04 L511.97 199.94 Z" fill="#E86745"/>
  <path d="M130.1 210.2 A134 134 0 0 1 374.3 193.1" stroke="#FFFFFF" stroke-width="26" stroke-linecap="round" fill="none"/>
  <path d="M388.4 219.6 L343.1 198.3 L396.1 170.2 Z" fill="#FFFFFF" stroke="#FFFFFF" stroke-width="18" stroke-linejoin="round" stroke-linecap="round"/>
  <path d="M381.9 301.8 A134 134 0 0 1 137.7 318.9" stroke="#FFFFFF" stroke-width="26" stroke-linecap="round" fill="none"/>
  <path d="M123.6 292.4 L168.9 313.7 L115.9 341.8 Z" fill="#FFFFFF" stroke="#FFFFFF" stroke-width="18" stroke-linejoin="round" stroke-linecap="round"/>
</svg>
